<svg width="345" height="68" viewBox="0 0 345 68" fill="none" xmlns="http://www.w3.org/2000/svg">
<path d="M34.5 0L45.2477 19.4215L67.3114 23.4934L51.8901 39.5685L54.7786 61.5066L34.5 52.02L14.2214 61.5066L17.1099 39.5685L1.68855 23.4934L23.7523 19.4215L34.5 0Z" fill="#F76560"/>
<path d="M103.5 0L114.248 19.4215L136.311 23.4934L120.89 39.5685L123.779 61.5066L103.5 52.02L83.2214 61.5066L86.1099 39.5685L70.6885 23.4934L92.7523 19.4215L103.5 0Z" fill="#F76560"/>
<path d="M172.5 0L183.248 19.4215L205.311 23.4934L189.89 39.5685L192.779 61.5066L172.5 52.02L152.221 61.5066L155.11 39.5685L139.689 23.4934L161.752 19.4215L172.5 0Z" fill="#F76560"/>
<path d="M241.5 0L252.248 19.4215L274.311 23.4934L258.89 39.5685L261.779 61.5066L241.5 52.02L221.221 61.5066L224.11 39.5685L208.689 23.4934L230.752 19.4215L241.5 0Z" fill="#F76560"/>
<path d="M310.5 0L321.248 19.4215L343.311 23.4934L327.89 39.5685L330.779 61.5066L310.5 52.02L290.221 61.5066L293.11 39.5685L277.689 23.4934L299.752 19.4215L310.5 0Z" fill="#F76560"/>
</svg>
