<svg width="89" height="90" viewBox="0 0 89 90" fill="none" xmlns="http://www.w3.org/2000/svg">
<path d="M30.7201 70.6288C25.5368 70.6288 21.3186 74.8838 21.3186 80.115C21.3192 85.3456 25.5369 89.6006 30.7201 89.6006C35.9034 89.6006 40.1204 85.3456 40.1204 80.1144C40.1204 74.8838 35.9046 70.6288 30.7201 70.6288V70.6288ZM30.7201 85.1206C27.9841 85.1206 25.7586 82.875 25.7586 80.1144C25.7586 77.3537 27.9841 75.1081 30.7201 75.1081C33.4561 75.1081 35.6804 77.3537 35.6804 80.1144C35.6804 82.875 33.4561 85.1206 30.7201 85.1206Z" fill="black"/>
<path d="M69.7636 70.6288C64.5797 70.6288 60.3621 74.8838 60.3621 80.115C60.3627 85.3456 64.5797 89.6006 69.7636 89.6006C74.9475 89.6006 79.1651 85.3456 79.1651 80.1144C79.1651 74.8838 74.9481 70.6288 69.7636 70.6288V70.6288ZM69.7636 85.1206C67.0276 85.1206 64.8021 82.875 64.8021 80.1144C64.8021 77.3537 67.0276 75.1081 69.7636 75.1081C72.4996 75.1081 74.7251 77.3537 74.7251 80.1144C74.7251 82.875 72.4996 85.1206 69.7636 85.1206V85.1206Z" fill="black"/>
<path d="M88.9 17.6528C88.9 17.6422 88.8976 17.6322 88.8976 17.6215C88.8969 17.5328 88.8827 17.4465 88.8715 17.3597C88.8635 17.299 88.861 17.2359 88.8486 17.1759C88.8319 17.0991 88.804 17.0266 88.7805 16.9528C88.7594 16.8872 88.7421 16.8209 88.7154 16.7584C88.687 16.6928 88.6485 16.6341 88.6151 16.5709C88.5804 16.5072 88.5494 16.4422 88.5086 16.3822C88.4677 16.3222 88.4169 16.2691 88.3698 16.2128C88.3252 16.1597 88.2843 16.1034 88.236 16.0553C88.1827 16.0022 88.1214 15.9584 88.0619 15.9109C88.0093 15.8691 87.961 15.8222 87.904 15.7847C87.8452 15.7459 87.7814 15.7166 87.7194 15.6834C87.6538 15.6478 87.5899 15.6091 87.5193 15.5803C87.4617 15.5559 87.3985 15.5428 87.3385 15.5241C87.2579 15.4991 87.1787 15.4709 87.0944 15.4553C87.0839 15.4534 87.074 15.4484 87.0634 15.4466C87.0003 15.4359 86.9389 15.4384 86.877 15.4328C86.8113 15.4266 86.7482 15.4128 86.6819 15.4128H16.0637L13.2929 1.79025C13.0817 0.747135 12.1724 -0.000305176 11.1181 -0.000305176H2.31995C1.09349 -0.000305176 0.0999451 1.00219 0.0999451 2.23969C0.0999451 3.4772 1.09349 4.47969 2.31995 4.47969H9.30756L11.9593 17.5147C11.9569 17.5616 11.9457 17.6054 11.9457 17.6516C11.9457 18.0154 12.0399 18.3535 12.1916 18.6566L18.7327 50.8166C18.7333 50.9616 18.747 51.1085 18.7761 51.2566L21.2173 63.3697C21.4279 64.4134 22.3372 65.1635 23.3927 65.1635H78.9181C80.1446 65.1635 81.1381 64.161 81.1381 62.9235C81.1381 61.686 80.1446 60.6835 78.9181 60.6835H25.2068L23.6235 52.8267H80.9868H80.9874H80.9892C81.1311 52.8267 81.2717 52.8104 81.4073 52.7835C81.4563 52.7735 81.5015 52.7573 81.5492 52.7448C81.6347 52.7223 81.7189 52.6979 81.8007 52.666C81.8546 52.6448 81.9054 52.6179 81.9568 52.5917C82.0268 52.5567 82.0961 52.521 82.163 52.4785C82.2126 52.4473 82.2597 52.4129 82.3061 52.3779C82.3693 52.3304 82.4294 52.281 82.487 52.2273C82.5285 52.1885 82.5688 52.1492 82.6072 52.1073C82.6623 52.0473 82.7131 51.9848 82.7614 51.9185C82.7942 51.8735 82.827 51.831 82.8562 51.7835C82.8995 51.7135 82.9367 51.6404 82.9732 51.5648C82.998 51.5135 83.024 51.4642 83.0451 51.4117C83.0754 51.3348 83.0965 51.2529 83.1188 51.1717C83.1337 51.1154 83.1522 51.0617 83.1634 51.0029C83.1653 50.991 83.1702 50.9817 83.1721 50.9698L88.8651 18.037C88.8769 17.9714 88.8738 17.907 88.8793 17.8414C88.8862 17.7789 88.8998 17.7182 88.8998 17.6539L88.9 17.6528ZM84.0389 19.8928L79.12 48.3456H22.7621L16.9749 19.8928H84.0389Z" fill="black"/>
</svg>
