<svg width="92" height="74" viewBox="0 0 92 74" fill="none" xmlns="http://www.w3.org/2000/svg">
<path d="M45.6979 0.00053652C45.2175 0.0109104 44.7698 0.169709 44.3397 0.46496L0.867708 34.785C-0.132169 35.5885 -0.274208 37.0705 0.474295 38.0384C1.21244 38.992 2.78211 39.1452 3.72775 38.3959L45.7698 5.21991L87.8118 38.3959C88.7574 39.1452 90.284 38.9864 91.0293 38.0384C91.769 37.0976 91.69 35.5343 90.6718 34.785L47.1998 0.46496C46.6906 0.129808 46.1783 -0.00984119 45.6979 0.00053652H45.6979ZM17.1694 30.7823L12.5938 34.3933V70.9298L12.593 70.929C12.593 72.1922 13.6176 73.2168 14.8808 73.2168H35.4728C36.736 73.2168 37.7606 72.1921 37.7606 70.929V50.337H53.7762V70.929H53.777C53.777 72.1922 54.8008 73.2168 56.0648 73.2168H76.6568C77.92 73.2168 78.9446 72.1921 78.9446 70.929V34.3925L74.369 30.7815V68.6397H58.3534V48.0477L58.3526 48.0485C58.3526 46.7845 57.328 45.7607 56.0648 45.7607H35.4728C34.2096 45.7607 33.185 46.7846 33.185 48.0485V68.6405H17.1694L17.1694 30.7823Z" fill="black"/>
</svg>
