<svg width="74" height="74" viewBox="0 0 74 74" fill="none" xmlns="http://www.w3.org/2000/svg">
<path d="M29.6942 0.00054827C13.3307 0.00054827 0 13.3312 0 29.6947C0 46.0583 13.3314 59.3889 29.6942 59.3889C36.7713 59.3889 43.272 56.8874 48.3822 52.7333L68.4763 72.8275C69.6756 74.0267 71.6284 74.0267 72.8278 72.8275C74.0271 71.6282 74.0271 69.7075 72.8278 68.5074L52.7336 48.4133C56.8958 43.3011 59.3893 36.779 59.3893 29.6942C59.3893 13.3307 46.0579 0 29.6951 0L29.6942 0.00054827ZM29.6942 6.14418C42.737 6.14418 53.2443 16.6521 53.2443 29.6944C53.2443 42.7366 42.7365 53.2445 29.6942 53.2445C16.6519 53.2445 6.144 42.7366 6.144 29.6944C6.144 16.6521 16.6519 6.14418 29.6942 6.14418V6.14418Z" fill="black"/>
</svg>
