<svg width="79" height="70" viewBox="0 0 79 70" fill="none" xmlns="http://www.w3.org/2000/svg">
<path d="M37.5878 12.2872L39.0962 14.0199L40.6047 12.2873C42.8835 9.66981 45.4681 7.07065 48.3048 5.13406C51.1377 3.20007 54.114 2 57.2133 2C68.9736 2 76.192 12.0163 76.192 20.1192C76.192 29.158 70.8829 38.1336 63.237 46.466C55.9953 54.358 46.9146 61.3969 39.096 67.0406C31.2777 61.3971 22.197 54.3585 14.9552 46.4667C7.30925 38.1344 2 29.1588 2 20.1192C2 12.0161 9.21931 2 20.9787 2H20.9792C24.078 2 27.0542 3.2 29.8873 5.13399C32.7241 7.07056 35.309 9.66973 37.5878 12.2872Z" stroke="black" stroke-width="4"/>
</svg>
