<svg width="77" height="72" viewBox="0 0 77 72" fill="none" xmlns="http://www.w3.org/2000/svg">
<path d="M8.72747 40.3642L17.4549 29.4551H11.6595C14.6303 16.3233 26.3147 6.54604 40.364 6.54604C56.6698 6.54604 69.8186 19.6946 69.8186 36.0006C69.8186 52.3066 56.67 65.4551 40.364 65.4551C29.7076 65.4551 20.4101 59.8521 15.2381 51.4093L9.54448 54.5794C15.8589 65.0075 27.3129 72 40.3627 72C60.2055 72 76.3627 55.8432 76.3627 36C76.3627 16.1571 60.2059 0 40.3627 0C22.7603 0 8.03864 12.7309 4.94318 29.4545H0L8.72747 40.3642ZM37.0909 15.2725V37.568L38.3183 38.5565L51.7843 49.3294L55.8752 44.2158L53.3183 42.1703L43.6367 34.4313V15.2718L37.0909 15.2725Z" fill="black"/>
</svg>
