<svg width="80" height="82" viewBox="0 0 80 82" fill="none" xmlns="http://www.w3.org/2000/svg">
<path d="M40.0001 0C29.7508 0 21.4022 8.34866 21.4022 18.598C21.4022 28.8473 29.7508 37.1959 40.0001 37.1959C50.2494 37.1959 58.5981 28.8473 58.5981 18.598C58.5981 8.34866 50.2494 0 40.0001 0V0ZM40.0001 3.71926C48.2392 3.71926 54.8788 10.3587 54.8788 18.598C54.8788 26.837 48.24 33.4767 40.0001 33.4767C31.7611 33.4767 25.1214 26.8372 25.1214 18.598C25.1214 10.3589 31.7602 3.71926 40.0001 3.71926ZM40.0001 44.6348C19.4461 44.6348 2.44054 59.9519 0.014505 79.7384C-0.0523048 80.271 0.113749 80.8061 0.469857 81.207C0.825958 81.6072 1.3384 81.8349 1.87417 81.831H78.1258C78.6616 81.8349 79.174 81.6072 79.5301 81.207C79.8862 80.8061 80.0523 80.271 79.9855 79.7384C77.5596 59.9515 60.5539 44.6348 39.9999 44.6348H40.0001ZM40.0001 48.354C57.9671 48.354 72.7309 61.2057 75.8294 78.1108H4.16916C7.26838 61.2066 22.0315 48.354 39.9985 48.354H40.0001Z" fill="#444444"/>
</svg>
