<svg width="80" height="66" viewBox="0 0 80 66" fill="none" xmlns="http://www.w3.org/2000/svg">
<path d="M78.1815 4.63706e-05H1.81838C0.81453 4.63706e-05 0 0.814577 0 1.81843V23.6365C0 24.1186 0.191765 24.5813 0.532672 24.9222C0.873579 25.2631 1.33623 25.4549 1.81838 25.4549H16.3635V63.6365C16.3635 64.4187 16.8645 65.1139 17.6072 65.361C18.3493 65.6088 19.1669 65.3531 19.6363 64.7273L23.6365 59.4L27.6367 64.7273C27.98 65.1851 28.5188 65.4542 29.091 65.4542C29.6632 65.4542 30.202 65.1851 30.5453 64.7273L34.5455 59.4L38.5457 64.7273C38.889 65.1851 39.4278 65.4542 40 65.4542C40.5723 65.4542 41.111 65.1851 41.4544 64.7273L45.4545 59.4L49.4547 64.7273C49.7981 65.1851 50.3368 65.4542 50.9091 65.4542C51.4813 65.4542 52.02 65.1851 52.3634 64.7273L56.3636 59.4L60.3638 64.7273C60.7071 65.1851 61.2459 65.4542 61.8181 65.4542C62.0111 65.4803 62.2071 65.4803 62.4001 65.4542C63.1732 65.1942 63.6791 64.4509 63.6365 63.6364V25.4548H78.1816C78.6638 25.4548 79.1264 25.263 79.4673 24.9221C79.8082 24.5812 80 24.1186 80 23.6364V1.81838C80 1.33623 79.8082 0.873579 79.4673 0.532672C79.1264 0.191765 78.6638 0 78.1816 0L78.1815 4.63706e-05ZM59.9993 58.1826L57.8175 55.2733C57.4742 54.8155 56.9354 54.5458 56.3632 54.5458C55.791 54.5458 55.2522 54.8155 54.9088 55.2733L50.9087 60.6006L46.9085 55.2733C46.5651 54.8155 46.0264 54.5458 45.4542 54.5458C44.8819 54.5458 44.3432 54.8155 43.9998 55.2733L39.9996 60.6006L35.9995 55.2733C35.6561 54.8155 35.1174 54.5458 34.5451 54.5458C33.9729 54.5458 33.4341 54.8155 33.0908 55.2733L29.0906 60.6006L25.0904 55.2733C24.7471 54.8155 24.2083 54.5458 23.6361 54.5458C23.0639 54.5458 22.5251 54.8155 22.1818 55.2733L20 58.1826V14.5465H59.9987L59.9993 58.1826ZM76.3629 21.8197L63.6361 21.819V14.5468H67.2722C68.276 14.5468 69.0906 13.7322 69.0906 12.7284C69.0906 11.7246 68.276 10.91 67.2722 10.91H12.7271C11.7232 10.91 10.9087 11.7246 10.9087 12.7284C10.9087 13.7322 11.7232 14.5468 12.7271 14.5468H16.3632V21.8197L3.63644 21.8191V3.63839H76.3622L76.3629 21.8197Z" fill="#444444"/>
<path d="M25.4551 25.4552H47.2732C48.277 25.4552 49.0909 24.6407 49.0909 23.6369C49.0909 22.633 48.277 21.8185 47.2732 21.8185H25.4551C24.4507 21.8185 23.6367 22.633 23.6367 23.6369C23.6367 24.6407 24.4507 25.4552 25.4551 25.4552Z" fill="#444444"/>
<path d="M25.4551 32.7269H54.5448C55.5493 32.7269 56.3632 31.9129 56.3632 30.9091C56.3632 29.9046 55.5493 29.0907 54.5448 29.0907H25.4551C24.4507 29.0907 23.6367 29.9046 23.6367 30.9091C23.6367 31.9129 24.4507 32.7269 25.4551 32.7269V32.7269Z" fill="#444444"/>
<path d="M25.4551 40H54.5448C55.5493 40 56.3632 39.1861 56.3632 38.1816C56.3632 37.1778 55.5493 36.3639 54.5448 36.3639H25.4551C24.4507 36.3639 23.6367 37.1778 23.6367 38.1816C23.6367 39.1861 24.4507 40 25.4551 40V40Z" fill="#444444"/>
<path d="M25.4551 47.2732H43.6358C44.6402 47.2732 45.4541 46.4587 45.4541 45.4549C45.4541 44.451 44.6402 43.6365 43.6358 43.6365H25.4551C24.4507 43.6365 23.6367 44.451 23.6367 45.4549C23.6367 46.4587 24.4507 47.2732 25.4551 47.2732V47.2732Z" fill="#444444"/>
</svg>
