<svg width="107" height="98" viewBox="0 0 107 98" fill="none" xmlns="http://www.w3.org/2000/svg">
<path d="M53.5002 0C23.9532 0 0 18.8784 0 42.166C0 57.3221 10.1491 70.6091 25.3816 78.0407C24.2625 82.2042 21.3296 93.1282 20.743 95.4647C20.0156 98.3658 21.8071 98.3284 22.9813 97.5471C23.9017 96.937 37.6406 87.6228 43.5705 83.6037C46.7877 84.079 50.1069 84.3309 53.5002 84.3309C83.0472 84.3309 107 65.4529 107 42.166C107 18.8784 83.0472 0 53.5002 0Z" fill="#381E1F"/>
<path d="M25.2792 56C23.6802 56 22.3774 54.7434 22.3774 53.1985V35.7463H17.8492C17.0951 35.7454 16.372 35.4426 15.8381 34.9042C15.3042 34.3658 15.0029 33.6356 15 32.8732C15.0029 32.1108 15.3042 31.3806 15.8381 30.8422C16.372 30.3037 17.0951 30.001 17.8492 30H32.7129C33.467 30.001 34.1901 30.3037 34.724 30.8422C35.2579 31.3806 35.5592 32.1108 35.5621 32.8732C35.5592 33.6356 35.2579 34.3658 34.724 34.9042C34.1901 35.4426 33.467 35.7454 32.7129 35.7463H28.1793V53.1985C28.1793 54.7416 26.8783 56 25.2774 56H25.2792ZM50.7311 55.9633C49.521 55.9633 48.5942 55.4672 48.3144 54.6663L46.8789 50.8636H38.0297L36.5942 54.67C36.3162 55.4672 35.3913 55.9633 34.1811 55.9633C33.5452 55.9633 32.9146 55.8255 32.3368 55.5591C31.5373 55.1862 30.7668 54.1593 31.6463 51.3926L38.5876 32.9173C39.0782 31.5119 40.5627 30.0643 42.4525 30.0202C44.3477 30.0625 45.8323 31.5119 46.3229 32.9191L53.2641 51.3853C54.1472 54.1409 53.3786 55.188 52.5773 55.5554C51.9958 55.8218 51.3689 55.9596 50.733 55.9596L50.7311 55.9633ZM45.3526 45.6647L42.4543 37.3372L39.5561 45.6647H45.3526ZM57.9341 55.572C56.4004 55.572 55.1539 54.365 55.1539 52.8825V32.9503C55.1539 31.3337 56.484 30.0165 58.1158 30.0165C59.7475 30.0165 61.0776 31.3319 61.0776 32.9503V50.1894H67.2466C68.7802 50.1894 70.0267 51.3963 70.0267 52.8788C70.0267 54.3613 68.7784 55.5683 67.2466 55.5683L57.9341 55.572ZM74.0589 55.9614C73.2897 55.96 72.5524 55.6504 72.0085 55.1005C71.4646 54.5506 71.1584 53.8053 71.157 53.0276V32.954C71.1584 32.1764 71.4646 31.431 72.0085 30.8811C72.5524 30.3312 73.2897 30.0217 74.0589 30.0202C74.828 30.0217 75.5653 30.3312 76.1092 30.8811C76.6531 31.431 76.9593 32.1764 76.9607 32.954V39.2607L85.0595 31.0728C85.2719 30.862 85.5236 30.6958 85.7999 30.5839C86.0762 30.472 86.3718 30.4165 86.6694 30.4207C87.3963 30.4207 88.1231 30.7367 88.6682 31.2878C89.177 31.8022 89.4804 32.4635 89.5222 33.1487C89.564 33.834 89.3369 34.4751 88.8826 34.9362L82.2684 41.6231L89.4132 51.1942C89.8784 51.8152 90.0801 52.5977 89.971 53.3675C89.862 54.1372 89.4623 54.8371 88.8445 55.3019C88.3424 55.6876 87.7288 55.8955 87.0983 55.8934C86.1861 55.8971 85.3266 55.4654 84.7796 54.7269L77.9729 45.6077L76.9662 46.6255V53.0276C76.9652 53.8059 76.659 54.552 76.1146 55.1024C75.5703 55.6527 74.8323 55.9623 74.0625 55.9633L74.0589 55.9614Z" fill="#FFE812"/>
</svg>
