<svg width="68" height="64" viewBox="0 0 68 64" fill="none" xmlns="http://www.w3.org/2000/svg">
<path d="M65.2865 8.78416L65.2958 8.76861L58.5816 2.99038C57.1196 1.52379 55.051 0.593018 52.7398 0.593018H7.99472C3.58623 0.593018 0 3.94017 0 8.05475V54.1129C0 55.3937 0.250005 56.3478 0.764838 57.0262C0.9454 57.2647 1.15837 57.4644 1.39541 57.6268L7.81879 63.151C7.91972 63.2512 8.02528 63.3446 8.13824 63.4249L8.19658 63.4751L8.20306 63.4647C8.30862 63.5364 8.40955 63.6168 8.52437 63.6704C8.90216 63.8519 9.32903 63.9469 9.78645 63.9469C10.98 63.9469 12.0226 63.3014 12.2189 63.1709L19.7238 56.0021C21.3165 54.2054 25.6018 53.8052 27.1185 53.8026H59.527C63.9365 53.8026 67.5227 50.4555 67.5227 46.3409V13.9021C67.5227 11.9075 66.6597 10.1159 65.2865 8.78416ZM58.0677 8.92849V40.4935C58.0677 43.2357 55.6778 45.4663 52.7398 45.4663H20.3303C19.6451 45.4663 13.5551 45.5553 10.9541 48.4937L9.45495 49.93L6.79005 52.4864L3.81402 55.3401C3.58901 55.4645 3.23252 55.6106 2.99825 55.6106L2.96584 55.6166C2.96306 55.6149 2.66583 55.3479 2.66583 54.1146V8.05475C2.66583 5.31256 5.05573 3.08113 7.99472 3.08113H52.7398C55.0686 3.08113 57.0334 4.49327 57.7548 6.44211C57.9446 6.95027 58.0677 7.48782 58.0677 8.05562V8.92849Z" fill="white"/>
<path d="M17.5885 16.1853C15.3885 16.1853 13.606 17.8498 13.606 19.9023V27.7089C13.606 29.7614 15.3885 31.4259 17.5885 31.4259C19.7886 31.4259 21.5711 29.7614 21.5711 27.7089V19.9023C21.5711 17.8498 19.7886 16.1853 17.5885 16.1853Z" fill="white"/>
<path d="M42.3932 16.1853C40.1931 16.1853 38.4125 17.8498 38.4125 19.9023V27.7089C38.4125 29.7614 40.1931 31.4259 42.3932 31.4259C44.5942 31.4259 46.3776 29.7614 46.3776 27.7089V19.9023C46.3776 17.8498 44.5942 16.1853 42.3932 16.1853Z" fill="white"/>
</svg>
